<svg width="25" height="24" viewBox="0 0 25 24" fill="none" xmlns="http://www.w3.org/2000/svg">
<path d="M12.5 1.5C6.70156 1.5 2 6.32344 2 12.2672C2 17.025 5.00937 21.0562 9.18125 22.4812C9.23977 22.494 9.29949 22.5002 9.35938 22.5C9.74844 22.5 9.89844 22.2141 9.89844 21.9656C9.89844 21.7078 9.88906 21.0328 9.88437 20.1328C9.53705 20.2142 9.18173 20.2567 8.825 20.2594C6.80469 20.2594 6.34531 18.6891 6.34531 18.6891C5.86719 17.4469 5.17813 17.1141 5.17813 17.1141C4.26406 16.4719 5.17344 16.4531 5.24375 16.4531H5.24844C6.30313 16.5469 6.85625 17.5687 6.85625 17.5687C7.38125 18.4875 8.08437 18.7453 8.7125 18.7453C9.12783 18.737 9.53673 18.6412 9.9125 18.4641C10.0063 17.7703 10.2781 17.2969 10.5781 17.025C8.24844 16.7531 5.79688 15.8297 5.79688 11.7047C5.79688 10.5281 6.20469 9.56719 6.875 8.81719C6.76719 8.54531 6.40625 7.44844 6.97812 5.96719C7.05483 5.94883 7.13368 5.94095 7.2125 5.94375C7.59219 5.94375 8.45 6.08906 9.86563 7.07344C11.5857 6.59218 13.4049 6.59218 15.125 7.07344C16.5406 6.08906 17.3984 5.94375 17.7781 5.94375C17.8569 5.94095 17.9358 5.94883 18.0125 5.96719C18.5844 7.44844 18.2234 8.54531 18.1156 8.81719C18.7859 9.57187 19.1937 10.5328 19.1937 11.7047C19.1937 15.8391 16.7375 16.7484 14.3984 17.0156C14.7734 17.3484 15.1109 18.0047 15.1109 19.0078C15.1109 20.4469 15.0969 21.6094 15.0969 21.9609C15.0969 22.2141 15.2422 22.5 15.6312 22.5C15.6942 22.5003 15.7571 22.494 15.8187 22.4812C19.9953 21.0562 23 17.0203 23 12.2672C23 6.32344 18.2984 1.5 12.5 1.5Z" fill="white"/>
</svg>
