<svg width="48" height="40" viewBox="0 0 48 40" fill="none" xmlns="http://www.w3.org/2000/svg">
<path d="M37.2176 7.89891C36.9444 7.85232 36.686 8.03451 36.6406 8.30583C36.5951 8.57714 36.7798 8.83485 37.053 8.88144L37.1353 8.39017L37.2176 7.89891ZM9.7606 17.8938L10.0982 18.2641L9.7606 17.8938ZM15.1325 14.3545C15.1928 14.0861 15.0225 13.8188 14.7521 13.7575L10.3465 12.7582C10.0761 12.6969 9.8081 12.8647 9.7478 13.1331C9.6875 13.4015 9.85778 13.6687 10.1281 13.7301L14.0442 14.6183L13.1708 18.5058C13.1105 18.7741 13.2807 19.0414 13.5511 19.1027C13.8215 19.164 14.0895 18.9962 14.1498 18.7278L15.1325 14.3545ZM43.4523 12.3289L42.9983 12.5383C44.129 14.9378 43.231 18.1475 40.5569 21.4793C37.9043 24.7841 33.5996 28.0733 28.2629 30.5357L28.4761 30.988L28.6892 31.4403C34.1353 28.9274 38.5745 25.5518 41.3423 22.1034C44.0885 18.6819 45.2872 15.0497 43.9063 12.1194L43.4523 12.3289ZM28.4761 30.988L28.2629 30.5357C22.9263 32.9982 17.6129 34.147 13.3494 34.0334C9.0512 33.9188 5.98916 32.5363 4.85844 30.1369L4.40444 30.3464L3.95044 30.5559C5.33135 33.4862 8.91375 34.9123 13.3277 35.0299C17.7765 35.1485 23.2431 33.9533 28.6892 31.4403L28.4761 30.988ZM37.1353 8.39017L37.053 8.88144C40.0248 9.38808 42.1074 10.6479 42.9983 12.5383L43.4523 12.3289L43.9063 12.1194C42.8171 9.80811 40.3512 8.43313 37.2176 7.89891L37.1353 8.39017ZM4.40444 30.3464L4.85844 30.1369C4.12436 28.5791 4.24076 26.6878 5.15554 24.6218C6.07041 22.5556 7.76633 20.3619 10.0982 18.2641L9.7606 17.8938L9.42296 17.5235C7.02223 19.6832 5.22477 21.9857 4.23707 24.2163C3.24928 26.4472 3.05392 28.6534 3.95044 30.5559L4.40444 30.3464ZM9.7606 17.8938L10.0982 18.2641C11.4929 17.0095 13.1097 15.7941 14.9119 14.6655L14.6429 14.2434L14.374 13.8213C12.5269 14.9779 10.8636 16.2275 9.42296 17.5235L9.7606 17.8938Z" fill="url(#paint0_linear_4079_33566)"/>
<path d="M37.5049 0C37.5049 4.69442 33.6989 8.5 29.0039 8.5C33.6989 8.5 37.5049 12.3056 37.5049 17C37.5049 12.3056 41.311 8.5 46.0059 8.5C41.311 8.5 37.5049 4.69442 37.5049 0Z" fill="url(#paint1_linear_4079_33566)"/>
<defs>
<linearGradient id="paint0_linear_4079_33566" x1="32.2934" y1="8.80939" x2="31.4694" y2="37.9079" gradientUnits="userSpaceOnUse">
<stop stop-color="#4AE5FE"/>
<stop offset="0.524454" stop-color="#5AC2FF"/>
<stop offset="1" stop-color="#E615FF"/>
</linearGradient>
<linearGradient id="paint1_linear_4079_33566" x1="42.6082" y1="1.99219" x2="29.4042" y2="14.9354" gradientUnits="userSpaceOnUse">
<stop stop-color="#4AE5FE"/>
<stop offset="0.524454" stop-color="#5AC2FF"/>
<stop offset="1" stop-color="#E615FF"/>
</linearGradient>
</defs>
</svg>
