<svg width="56" height="40" viewBox="0 0 56 40" fill="none" xmlns="http://www.w3.org/2000/svg">
<path d="M43.4893 15.3906C49.4303 15.3906 54.2637 20.3232 54.2637 26.3545C54.2635 32.3866 49.4513 37.2949 43.4893 37.2949H26.2051L26.2041 37.2939V37.2949H10.4941C6.20745 37.2949 2.59961 33.7532 2.59961 29.377C2.59984 25.0156 5.92664 21.6183 10.2275 21.6182C13.3729 21.6182 15.3074 23.3756 16.4199 25.2881C17.5124 27.1664 17.8554 29.2514 17.8555 30.167C17.8555 30.5577 17.5427 30.8867 17.1416 30.8867C16.7405 30.8867 16.4277 30.5577 16.4277 30.167C16.4277 29.4806 16.139 27.6512 15.1875 26.0156C14.256 24.4146 12.733 23.0576 10.2275 23.0576C6.72889 23.0578 4.02855 25.797 4.02832 29.377C4.02832 32.9428 6.98088 35.8555 10.4941 35.8555H43.4893C48.6511 35.8555 52.8357 31.6031 52.8359 26.3545C52.8359 21.1046 48.628 16.8311 43.4893 16.8311C38.3505 16.8311 34.1426 21.1046 34.1426 26.3545C34.1424 26.745 33.8297 27.0742 33.4287 27.0742C33.0278 27.0741 32.7151 26.745 32.7148 26.3545C32.7148 20.3232 37.5483 15.3907 43.4893 15.3906ZM43.4863 19.0107C47.4636 19.0107 50.7002 22.3059 50.7002 26.3555C50.7001 30.4218 47.4743 33.6857 43.5098 33.6982V33.6992H9.82715C7.40523 33.699 5.40642 31.6947 5.40625 29.1982C5.40625 26.7056 7.37905 24.6965 9.82715 24.6963C12.2754 24.6963 14.249 26.7055 14.249 29.1982H12.3643C12.3643 27.7651 11.2346 26.6152 9.82715 26.6152C8.41981 26.6154 7.29102 27.7653 7.29102 29.1982C7.29119 30.6271 8.43815 31.7811 9.82715 31.7812H43.4863C46.4249 31.7812 48.8153 29.3656 48.8154 26.3555C48.8154 23.3656 46.4228 20.9297 43.4863 20.9297C40.5479 20.93 38.1582 23.3454 38.1582 26.3555H36.2734C36.2734 22.2813 39.5115 19.011 43.4863 19.0107ZM26.6475 2.59961C33.3141 2.59979 39.0521 6.76247 41.6602 12.7314C41.8164 13.0892 41.6606 13.5138 41.2988 13.6777C40.933 13.8434 40.5105 13.6729 40.3525 13.3115C37.9527 7.81933 32.7 4.04022 26.6475 4.04004C18.3398 4.04004 11.5615 11.1332 11.5615 19.9482C11.5615 20.3388 11.2486 20.6678 10.8477 20.668C10.4465 20.668 10.1328 20.3389 10.1328 19.9482C10.1328 10.3977 17.4933 2.59961 26.6475 2.59961Z" fill="url(#paint0_linear_4079_33380)"/>
<path fill-rule="evenodd" clip-rule="evenodd" d="M26.5146 7.4074C20.4067 7.4074 15.4489 12.0527 15.4489 17.7963C15.4489 17.9088 15.3484 18 15.2244 18C15.1005 18 15 17.9088 15 17.7963C15 11.8406 20.1448 7 26.5146 7C31.1544 7 35.1579 9.58252 36.9806 13.3011C37.0309 13.4039 36.98 13.5243 36.8667 13.57C36.7535 13.6158 36.6208 13.5695 36.5705 13.4667C34.8144 9.88403 30.964 7.4074 26.5146 7.4074Z" stroke="url(#paint1_linear_4079_33380)" stroke-width="0.8" stroke-miterlimit="10" stroke-linecap="round" stroke-linejoin="round"/>
<defs>
<linearGradient id="paint0_linear_4079_33380" x1="3.95403" y1="8.51358" x2="-10.7746" y2="152.445" gradientUnits="userSpaceOnUse">
<stop stop-color="#F500FF"/>
<stop offset="0.211538" stop-color="#4200FF"/>
</linearGradient>
<linearGradient id="paint1_linear_4079_33380" x1="15.5767" y1="8.875" x2="12.0839" y2="54.7196" gradientUnits="userSpaceOnUse">
<stop stop-color="#F500FF"/>
<stop offset="0.211538" stop-color="#4200FF"/>
</linearGradient>
</defs>
</svg>
