<svg width="44" height="40" viewBox="0 0 44 40" fill="none" xmlns="http://www.w3.org/2000/svg">
<rect width="14.0627" height="14.0627" transform="matrix(0.5 -0.866025 1 2.20305e-08 1 38.2686)" fill="url(#paint0_linear_4079_33362)"/>
<rect width="14.0627" height="14.0627" transform="matrix(0.5 0.866025 1 -2.20305e-08 1 13.911)" fill="url(#paint1_linear_4079_33362)"/>
<rect width="14.0627" height="14.0627" transform="matrix(0.5 -0.866025 1 2.20305e-08 1 13.911)" fill="url(#paint2_linear_4079_33362)"/>
<rect width="14.0627" height="14.0627" transform="matrix(0.5 -0.866025 1 2.20305e-08 11.5469 38.2686)" fill="url(#paint3_linear_4079_33362)"/>
<rect width="14.0627" height="14.0627" transform="matrix(0.5 0.866025 1 -2.20305e-08 11.5469 13.911)" fill="url(#paint4_linear_4079_33362)"/>
<rect width="14.0627" height="14.0627" transform="matrix(0.5 -0.866025 1 2.20305e-08 11.5469 13.911)" fill="url(#paint5_linear_4079_33362)"/>
<rect width="14.0627" height="14.0627" transform="matrix(0.5 -0.866025 1 2.20305e-08 22.0938 38.2686)" fill="url(#paint6_linear_4079_33362)"/>
<rect width="14.0627" height="14.0627" transform="matrix(0.5 0.866025 1 -2.20305e-08 22.0938 13.911)" fill="url(#paint7_linear_4079_33362)"/>
<rect width="14.0627" height="14.0627" transform="matrix(0.5 -0.866025 1 2.20305e-08 22.0938 13.911)" fill="url(#paint8_linear_4079_33362)"/>
<defs>
<linearGradient id="paint0_linear_4079_33362" x1="7.03133" y1="0" x2="7.03133" y2="14.0627" gradientUnits="userSpaceOnUse">
<stop stop-color="#DC14E4"/>
<stop offset="1" stop-color="#5120E4"/>
</linearGradient>
<linearGradient id="paint1_linear_4079_33362" x1="7.03133" y1="0" x2="7.03133" y2="14.0627" gradientUnits="userSpaceOnUse">
<stop stop-color="#DC14E4"/>
<stop offset="1" stop-color="#5120E4"/>
</linearGradient>
<linearGradient id="paint2_linear_4079_33362" x1="7.03133" y1="0" x2="7.03133" y2="14.0627" gradientUnits="userSpaceOnUse">
<stop stop-color="#DC14E4"/>
<stop offset="1" stop-color="#5120E4"/>
</linearGradient>
<linearGradient id="paint3_linear_4079_33362" x1="7.03133" y1="0" x2="7.03133" y2="14.0627" gradientUnits="userSpaceOnUse">
<stop stop-color="#DC14E4"/>
<stop offset="1" stop-color="#5120E4"/>
</linearGradient>
<linearGradient id="paint4_linear_4079_33362" x1="7.03133" y1="0" x2="7.03133" y2="14.0627" gradientUnits="userSpaceOnUse">
<stop stop-color="#DC14E4"/>
<stop offset="1" stop-color="#5120E4"/>
</linearGradient>
<linearGradient id="paint5_linear_4079_33362" x1="7.03133" y1="0" x2="7.03133" y2="14.0627" gradientUnits="userSpaceOnUse">
<stop stop-color="#DC14E4"/>
<stop offset="1" stop-color="#5120E4"/>
</linearGradient>
<linearGradient id="paint6_linear_4079_33362" x1="7.03133" y1="0" x2="7.03133" y2="14.0627" gradientUnits="userSpaceOnUse">
<stop stop-color="#DC14E4"/>
<stop offset="1" stop-color="#5120E4"/>
</linearGradient>
<linearGradient id="paint7_linear_4079_33362" x1="7.03133" y1="0" x2="7.03133" y2="14.0627" gradientUnits="userSpaceOnUse">
<stop stop-color="#DC14E4"/>
<stop offset="1" stop-color="#5120E4"/>
</linearGradient>
<linearGradient id="paint8_linear_4079_33362" x1="7.03133" y1="0" x2="7.03133" y2="14.0627" gradientUnits="userSpaceOnUse">
<stop stop-color="#DC14E4"/>
<stop offset="1" stop-color="#5120E4"/>
</linearGradient>
</defs>
</svg>
